<?xml version="1.0" encoding="utf-8"?>
<svg version="1.1" id="Ebene_1" xmlns="http://www.w3.org/2000/svg" xmlns:xlink="http://www.w3.org/1999/xlink" x="0px" y="0px"
	 viewBox="0 0 115 60" style="enable-background:new 0 0 115 60;" xml:space="preserve">
<style type="text/css">
	.st0{fill-rule:evenodd;clip-rule:evenodd;fill:#004441;}
	.st1{fill-rule:evenodd;clip-rule:evenodd;fill:#FFFFFE;}
</style>
<g id="Symbols">
	<g>
		<g id="Kneipp-Logo">
			<polygon id="background" class="st0" points="0,60 115,60 115,0 0,0 			"/>
			<path id="Signet" class="st1" d="M73.4,27.4c-0.9,0.2-1.7-0.2-2.1-0.9c-0.5-1,0.7-2.3,1.9-2.2C74.5,24.5,74.8,27.1,73.4,27.4z
				 M57.5,33.6C57.5,33.6,57.5,33.6,57.5,33.6c0.8-0.4,2.9-1.5,3.5-3c0.2-0.5-0.1-1.1-0.6-1.3c-0.8-0.3-1.6,0.1-2.1,0.7
				C57.7,30.8,57.3,32.1,57.5,33.6z M73,29.9c0.2,1-1.4,6.8-1.7,7.9c0,0.1-0.2,0.7-0.3,0.9c-0.4,0.8-1.9,1.2-2.8,1.4
				c-0.3,0.1-0.4-0.1-0.4-0.4c0.3-1.2,1.4-4,2.1-7c0,0-0.3,0.2-0.3,0.2c-0.2,0.1-6.7,5.9-10.4,6.3c-1.7,0.2-3.4-0.9-3.9-2.5
				c0,0,0,0,0,0c-1.5,0.7-4.4,1.6-6.3,2.3c-1.9,0.7-2.1-0.9-2-1.6c0-0.9,0.2-3.6,0.2-3.6c-2.2,3.2-4.2,5.1-4.2,5.1
				c-1.2,1.2-2.9,1.8-3.6,1c-1-1.1,0.8-6.1,1.2-7.4l0.4-1.3c-0.1,0-0.1,0.1-0.2,0.1c-1.5,1.1-3.3,4.7-7.9,7.9
				c-0.2,0.1-0.4,0.3-0.6,0.4c-2.2,1.2-3.5,0.8-5.6-0.3c-2.6-1.5-4.9-4.2-6.3-6.1c-0.3,1.2-0.7,2.4-1,3.6c-0.3,1.1-0.6,2.3-0.9,3.4
				c-0.1,0.4-0.2,0.7-0.2,0.9c0,0.2-0.1,0.3-0.1,0.5c-0.2,0.8-0.6,0.9-1,0.9c-0.2,0-0.5-0.1-0.8-0.3c-1.3-0.8-1.1-2-0.8-2.8
				c0.3-0.8,0.6-1.7,0.9-2.5c0.6-1.9,1.3-3.8,1.9-5.7l-0.1-0.6c-1.4-1.5-2.6-3.1-2.6-4.4c0-0.5,0.2-1,0.4-1.5c0.3-0.6,0.9-1,1.6-0.9
				c0.6,0,1.1,0.2,1.5,0.8c0.3,0.4,0.6,1.1,0.9,1.8c0.2-0.4,0.3-0.9,0.5-1.3c1-2.7,2-5.9,2.6-7.6c0.1-0.3,0.2-0.6,0.3-0.9
				c0.2-0.5,0.3-0.9,0.5-1.4c0.2-0.5,0.6-0.6,0.9-0.6c0.2,0,0.3,0,0.5,0.1c0.6,0.2,0.9,0.5,1.1,0.9c0.2,0.5,0.3,1.3,0,2
				c-0.8,1.9-0.7,1.6-1,2.3c-0.4,1-0.8,2-1.3,3l-0.6,1.4c-0.2,0.4-1.4,3.5-1.7,4.4c-0.1,0.4-0.3,0.8-0.4,1.2l0.4,0.8
				c0.1,0,0.1-0.1,0.2-0.1c0.9-0.5,1.8-1.1,2.6-1.7c1.7-1.2,3.4-2.6,5.1-3.9c0.6-0.5,0.9-0.8,1.2-1c0.4-0.3,0.6-0.5,1.6-1.4l0.5-0.5
				c1.1-1,1.3-1.2,2.6-2.5c0.6-0.6,0.9-0.9,1.2-1.1c0.4-0.4,0.7-0.6,1.6-1.6c0.3-0.3,0.4-0.4,0.6-0.6c0.3-0.3,0.5-0.6,1.4-1.5
				c0,0,0.7-0.7,0.9-0.9c0.5-0.6,0.7-0.7,1.1-0.8c0.4,0,0.9,0.2,1.2,0.3c0.2,0.1,0.6,0.3,0.7,0.5c0.1,0.3-0.1,0.5-0.4,0.9
				c-1.1,1.3-2.1,2.3-3.3,3.5L38.7,20c-1.5,1.4-2.6,2.5-4.6,4.3c-0.7,0.7-0.9,0.8-1.1,0.9c-0.2,0.1-0.4,0.3-1,0.8
				c-1.4,1.2-2.8,2.4-4.3,3.5c-1,0.8-2,1.6-3.1,2.4c-0.5,0.4-1,0.7-1.5,1c1,1.3,2.6,3,4.5,4.2c2.1,1,2.8,1,5.2-0.9
				c2.6-2.4,4.1-4.9,6.1-6.6c1.2-0.9,1.8-1.5,2.8-1.4l0,0c1.3-0.1,2,0.8,2,1.5c0,0.9-1.1,4.4-2,7c0,0,0,0,0,0
				c1.7-1.9,4.8-6.3,5.5-6.9c0.9-0.8,2.1-0.3,2.3,0.4c0.2,0.8-0.1,5.4,0,6.1c0,0,3.8-1.2,5.1-1.7c0,0,0,0,0,0
				c-0.1-1.2-0.1-2.2,0.5-4c1.1-3.2,3.7-4.2,6-3.4c2.1,0.8,2.6,2.1,2.4,3.2c-0.4,2.4-4.3,4.8-5.8,5.4c0.2,0.5,0.4,1.1,1.6,0.9
				C63.1,36,69,30.8,70,29.7C71.2,28.6,72.9,29.3,73,29.9z M86,35.7c-0.8,1-2.4,2.4-4,3.3c-0.6,0.3-1.4,0.5-1.6-0.6
				c-0.2-0.6-0.2-0.6-0.2-1c-0.1-0.7,0.6-0.9,0.8-1c1.5-0.7,2.2-1.2,2.9-2c0.7-0.9,1.1-2.3,0.1-3.2c-1.2-1.1-3-0.7-4.1,0.3
				c-1,1-2.3,3.8-3.3,7.4c-1.1,3.6-1.3,4.1-2.2,8c-0.1,0.9-1.7,1.7-2.8,1.9c-0.2,0-0.4-0.1-0.4-0.4c0.3-2.6,1.2-4.9,2.3-8.6
				c1.6-5.3,3.5-9.7,5.6-11c1.4-1,2.9-1.4,4.9-0.7c2.5,0.8,3.1,2.3,3.4,3.7C87.4,33,87.2,34.2,86,35.7z M100.9,31.9
				c0.1,1,0,2.3-1.2,3.8c-0.8,1-2.4,2.4-4,3.3c-0.6,0.3-1.4,0.5-1.6-0.6c-0.2-0.6-0.2-0.6-0.2-1c-0.1-0.7,0.6-0.9,0.8-1
				c1.5-0.7,2.2-1.2,2.9-2c0.7-0.8,1.1-2.3,0.1-3.2c-1.2-1.1-3-0.7-4.1,0.3c-1,1-2.3,3.8-3.3,7.4c-1.1,3.6-1.3,4.1-2.2,8
				c-0.1,0.9-1.7,1.7-2.8,1.9c-0.2,0-0.4-0.1-0.4-0.4c0.3-2.6,1.2-4.9,2.3-8.6c1.6-5.3,3.5-9.7,5.6-11c1.4-1,2.9-1.4,4.9-0.7
				C100,29.1,100.6,30.5,100.9,31.9z"/>
		</g>
	</g>
</g>
</svg>
